<svg xmlns="http://www.w3.org/2000/svg" width="1728" height="546" fill="none" viewBox="0 0 1728 546"><g filter="url(#filter0_f_1_182)"><circle cx="430.721" cy="-2314.28" r="2784.72" fill="url(#paint0_radial_1_182)"/></g><circle cx="430.721" cy="-2314.28" r="2430.84" stroke="#9D9D9D"/><g filter="url(#filter1_f_1_182)" opacity=".8"><path fill="#74CDFF" d="M750.92 34.8329C751.082 33.6868 752.737 33.6868 752.9 34.8329L753.672 40.2725C753.734 40.7097 754.075 41.0544 754.512 41.1207L759.981 41.9511C761.114 42.1231 761.114 43.7564 759.981 43.9284L754.512 44.7588C754.075 44.8251 753.734 45.1698 753.672 45.607L752.9 51.0466C752.737 52.1927 751.082 52.1927 750.92 51.0466L750.148 45.607C750.086 45.1698 749.745 44.8251 749.308 44.7588L743.839 43.9284C742.706 43.7564 742.706 42.1231 743.839 41.9511L749.308 41.1207C749.745 41.0544 750.086 40.7097 750.148 40.2725L750.92 34.8329Z"/></g><defs><filter id="filter0_f_1_182" width="5719.44" height="5719.44" x="-2429" y="-5174" color-interpolation-filters="sRGB" filterUnits="userSpaceOnUse"><feFlood flood-opacity="0" result="BackgroundImageFix"/><feBlend in="SourceGraphic" in2="BackgroundImageFix" mode="normal" result="shape"/><feGaussianBlur result="effect1_foregroundBlur_1_182" stdDeviation="37.5"/></filter><filter id="filter1_f_1_182" width="19.841" height="19.933" x="741.989" y="32.973" color-interpolation-filters="sRGB" filterUnits="userSpaceOnUse"><feFlood flood-opacity="0" result="BackgroundImageFix"/><feBlend in="SourceGraphic" in2="BackgroundImageFix" mode="normal" result="shape"/><feGaussianBlur result="effect1_foregroundBlur_1_182" stdDeviation=".5"/></filter><radialGradient id="paint0_radial_1_182" cx="0" cy="0" r="1" gradientTransform="translate(430.721 -2314.28) rotate(90) scale(2784.72)" gradientUnits="userSpaceOnUse"><stop stop-color="#F6EFF7"/><stop offset=".802" stop-color="#FDFDFE"/><stop offset=".891" stop-color="#86D3FF"/><stop offset=".938" stop-color="#2FB4FF"/><stop offset="1" stop-color="#00A3FF" stop-opacity=".75"/></radialGradient></defs></svg>